<?xml version="1.0" encoding="UTF-8" standalone="no"?>
<!-- Generator: Adobe Illustrator 18.1.1, SVG Export Plug-In . SVG Version: 6.00 Build 0)  -->

<svg
   xmlns:dc="http://purl.org/dc/elements/1.1/"
   xmlns:cc="http://creativecommons.org/ns#"
   xmlns:rdf="http://www.w3.org/1999/02/22-rdf-syntax-ns#"
   xmlns:svg="http://www.w3.org/2000/svg"
   xmlns="http://www.w3.org/2000/svg"
   xmlns:sodipodi="http://sodipodi.sourceforge.net/DTD/sodipodi-0.dtd"
   xmlns:inkscape="http://www.inkscape.org/namespaces/inkscape"
   version="1.1"
   id="Capa_1"
   x="0px"
   y="0px"
   viewBox="0 0 477.326 477.326"
   style="enable-background:new 0 0 477.326 477.326;"
   xml:space="preserve"
   inkscape:version="0.91 r13725"
   sodipodi:docname="blacklogo.svg"><metadata
     id="metadata57"><rdf:RDF><cc:Work
         rdf:about=""><dc:format>image/svg+xml</dc:format><dc:type
           rdf:resource="http://purl.org/dc/dcmitype/StillImage" /><dc:title></dc:title></cc:Work></rdf:RDF></metadata><defs
     id="defs55" /><sodipodi:namedview
     pagecolor="#ffffff"
     bordercolor="#666666"
     borderopacity="1"
     objecttolerance="10"
     gridtolerance="10"
     guidetolerance="10"
     inkscape:pageopacity="0"
     inkscape:pageshadow="2"
     inkscape:window-width="700"
     inkscape:window-height="480"
     id="namedview53"
     showgrid="false"
     inkscape:zoom="0.49442102"
     inkscape:cx="238.66299"
     inkscape:cy="318.54929"
     inkscape:window-x="0"
     inkscape:window-y="0"
     inkscape:window-maximized="0"
     inkscape:current-layer="Capa_1" /><g
     id="g3"
     style="stroke:#ffffff;stroke-opacity:1;stroke-width:1;stroke-miterlimit:4;stroke-dasharray:none;fill:#000000;fill-opacity:1"><g
       id="g5"
       style="stroke:#ffffff;stroke-opacity:1;stroke-width:1;stroke-miterlimit:4;stroke-dasharray:none;fill:#000000;fill-opacity:1"><path
         style="fill:#000000;stroke:#ffffff;stroke-opacity:1;stroke-width:1;stroke-miterlimit:4;stroke-dasharray:none;fill-opacity:1"
         d="M58.98,95.039c13.607,24.256,30.945,50.226,51.356,76.685    c2.422-30.401,25.597-54.965,55.339-59.582c-27.223-18.273-53.705-33.449-78.107-44.723C75.066,72.938,64.93,82.781,58.98,95.039z    "
         id="path7" /><path
         style="fill:#000000;stroke:#ffffff;stroke-opacity:1;stroke-width:1;stroke-miterlimit:4;stroke-dasharray:none;fill-opacity:1"
         d="M176.43,119.449c-0.016,0-0.033,0-0.049,0c-0.211,0-0.415-0.033-0.626-0.033    c-1.154,0-2.292,0.106-3.43,0.171c-1.366,0.081-2.715,0.195-4.048,0.366c-28.206,3.682-50.08,27.816-50.08,57.014    c0,0.041,0.008,0.081,0.008,0.114c0,1.374,0.106,2.731,0.203,4.081c0.024,0.285,0.016,0.569,0.041,0.854    c0.772,0.959,1.52,1.926,2.3,2.886c12.9,16.013,26.832,32.1,41.708,48.007c4.081,0.967,8.316,1.536,12.672,1.585    c0-0.211-0.033-0.415-0.033-0.626c0-33.465,25.166-61.111,57.558-65.134c-0.374-2.601-0.902-5.145-1.609-7.625    C212.83,146.046,194.508,132.049,176.43,119.449z"
         id="path9" /><path
         style="fill:#000000;stroke:#ffffff;stroke-opacity:1;stroke-width:1;stroke-miterlimit:4;stroke-dasharray:none;fill-opacity:1"
         d="M249.815,177.097c-2.747-0.439-5.544-0.715-8.405-0.748c-0.211,0-0.415-0.033-0.626-0.033    c-1.154,0-2.292,0.106-3.43,0.171c-1.366,0.081-2.715,0.195-4.048,0.366c-28.206,3.682-50.08,27.816-50.08,57.014    c0,0.041,0.008,0.081,0.008,0.114c0,1.374,0.106,2.731,0.203,4.081c0.098,1.357,0.252,2.699,0.447,4.032    c0.992,6.852,3.121,13.339,6.308,19.192c8.494,8.316,17.208,16.534,26.141,24.605c7.373,3.479,15.574,5.487,24.248,5.519    c3.447-30.246,27.499-54.299,57.745-57.745c-0.016-4.17-0.496-8.226-1.357-12.136C281.63,205.962,265.82,191.119,249.815,177.097z    "
         id="path11" /><path
         style="fill:#000000;stroke:#ffffff;stroke-opacity:1;stroke-width:1;stroke-miterlimit:4;stroke-dasharray:none;fill-opacity:1"
         d="M316.835,242.427c-3.512-0.683-7.121-1.065-10.827-1.073c-0.065,0-0.13-0.008-0.203-0.008    c-1.325,0-2.626,0.114-3.934,0.195c-1.406,0.098-2.796,0.244-4.178,0.439c-25.247,3.585-45.227,23.565-48.812,48.812    c-0.195,1.382-0.341,2.772-0.439,4.178c-0.089,1.301-0.195,2.601-0.195,3.926c0,0.065,0.008,0.13,0.008,0.203    c0.016,5.617,0.87,11.039,2.398,16.168c17.753,14.396,36.148,28.052,55.022,40.749c3.633-30.043,27.58-53.884,57.68-57.315    c0-0.358-0.049-0.707-0.057-1.065C348.723,278.574,333.132,260.123,316.835,242.427z"
         id="path13" /><path
         style="fill:#000000;stroke:#ffffff;stroke-opacity:1;stroke-width:1;stroke-miterlimit:4;stroke-dasharray:none;fill-opacity:1"
         d="M313.925,355.82c-0.195,1.382-0.341,2.772-0.439,4.178c-0.024,0.406-0.041,0.821-0.065,1.236    c1.211,0.788,2.447,1.536,3.658,2.317c28.361,18.281,57.697,34.213,87.512,46.902c7.446-5.422,13.534-12.559,17.696-20.858    c-14.501-28.076-31.978-55.51-51.446-81.912c-0.309-0.423-0.61-0.845-0.927-1.268c-1.008,0.016-2.008,0.081-3.008,0.154    c-1.406,0.098-2.796,0.244-4.178,0.439C337.489,310.601,317.509,330.581,313.925,355.82z"
         id="path15" /><path
         style="fill:#000000;stroke:#ffffff;stroke-opacity:1;stroke-width:1;stroke-miterlimit:4;stroke-dasharray:none;fill-opacity:1"
         d="M472.18,463.467c-1.764,0.593-3.642,1.122-5.633,1.569c0.813,0.593,1.601,0.992,2.341,0.992    C470.107,466.019,471.196,465.109,472.18,463.467z"
         id="path17" /><path
         style="fill:#000000;stroke:#ffffff;stroke-opacity:1;stroke-width:1;stroke-miterlimit:4;stroke-dasharray:none;fill-opacity:1"
         d="M36.61,11.299c-1.398,0-2.796,0.008-4.202,0.016c-8.535,0.073-15.2,1.325-19.996,3.251    c7.933,1.609,15.087,10.234,20.907,25.182c16.363,3.593,34.709,9.966,54.437,18.866c1.772,0.797,3.536,1.601,5.324,2.439    c1.87,0.878,3.78,1.821,5.674,2.739c21.126,10.25,43.545,23.061,66.573,38.221c1.731,1.138,3.479,2.349,5.21,3.512    c1.609,1.073,3.211,2.154,4.82,3.251c1.333,0.91,2.666,1.772,3.999,2.699c2.268,1.569,4.552,3.227,6.828,4.836    c3.154,2.235,6.308,4.43,9.478,6.739c8.917,6.503,17.867,13.363,26.808,20.451c2.983,2.365,5.966,4.763,8.95,7.194    c2.187,1.78,4.365,3.577,6.544,5.389c5.267,4.373,10.51,8.844,15.745,13.404c2.325,2.032,4.658,4.056,6.974,6.121    c3.52,3.13,7.031,6.3,10.526,9.51c5.503,5.056,10.982,10.193,16.403,15.436c3.43,3.316,6.82,6.714,10.218,10.096    c2.113,2.113,4.243,4.194,6.34,6.332c5.844,5.958,11.599,12.047,17.298,18.208c1.788,1.935,3.56,3.894,5.34,5.853    c2.268,2.504,4.56,4.983,6.804,7.511c9.096,10.258,17.948,20.752,26.499,31.466c2.146,2.691,4.211,5.438,6.324,8.153    c1.609,2.081,3.243,4.146,4.828,6.235c1.016,1.341,2.032,2.666,3.04,4.016c1.049,1.406,2.056,2.837,3.097,4.251    c1.13,1.536,2.252,3.081,3.365,4.625c16.924,23.37,32.238,47.56,45.398,72.304c0.878,1.658,1.821,3.292,2.682,4.95    c0.853,1.65,1.65,3.316,2.479,4.967c6.17,12.201,11.786,24.524,16.81,36.928c1.878,0.577,3.755,1.236,5.633,1.788    c10.6,3.105,18.127,6.178,23.231,9.478C484.446,317.705,365.183,11.299,36.61,11.299z"
         id="path19" /><path
         style="fill:#000000;stroke:#ffffff;stroke-opacity:1;stroke-width:1;stroke-miterlimit:4;stroke-dasharray:none;fill-opacity:1"
         d="M451.948,436.171c-0.154-0.049-0.284-0.089-0.447-0.138c-1.512-0.439-3.024-0.975-4.536-1.439    c-1.658-0.504-3.325-1.049-4.983-1.585c-12.177-3.885-24.329-8.372-36.432-13.42c-1.544-0.642-3.081-1.252-4.625-1.91    c-1.626-0.699-3.243-1.382-4.869-2.097c-27.938-12.331-55.526-27.507-82.326-44.764c-1.439-0.927-2.878-1.837-4.308-2.772    c-1.406-0.927-2.804-1.886-4.202-2.821c-0.358-0.236-0.715-0.48-1.081-0.723c-2.309-1.544-4.625-3.073-6.917-4.641    c-2.918-1.991-5.812-4.024-8.706-6.064c-10.169-7.169-20.2-14.583-30.059-22.256c-2.853-2.219-5.682-4.479-8.503-6.73    c-2.138-1.715-4.292-3.406-6.413-5.137c-10.6-8.649-20.972-17.541-31.092-26.629c-9.917-8.901-19.59-17.972-28.986-27.182    c-8.608-8.446-16.972-16.997-25.093-25.613c-1.943-2.057-3.845-4.121-5.755-6.186c-2.707-2.926-5.414-5.861-8.064-8.795    c-7.267-8.072-14.258-16.168-21.037-24.272c-2.52-3.016-5.023-6.023-7.47-9.039c-1.683-2.073-3.333-4.146-4.983-6.218    c-0.138-0.179-0.285-0.35-0.423-0.528c-0.975-1.227-1.983-2.447-2.943-3.674c-1.122-1.431-2.219-2.853-3.325-4.284    c-19.167-24.743-35.717-49.153-49.129-72.312c-0.943-1.626-1.861-3.243-2.772-4.853c-0.862-1.536-1.78-3.089-2.617-4.609    c-9.454-17.2-17.029-33.579-22.524-48.747c-0.146-0.39-0.325-0.805-0.463-1.203c-0.423-1.179-0.862-2.235-1.301-3.341    c-0.65-1.642-1.301-3.17-1.967-4.601c-4.715-10.193-9.73-15.249-13.924-15.249c-2.089,0-3.959,1.292-5.495,3.731    c-0.772,1.236-1.447,2.796-2.032,4.641c-0.447,1.423-0.829,3.048-1.146,4.837c-0.74,4.219-1.13,9.34-0.959,15.534    C8.615,364.29,294.286,460.5,426.944,460.5c8.852,0,17.038-0.431,24.402-1.252c0.439-0.049,0.813-0.114,1.244-0.163    c1.479-0.179,2.926-0.358,4.268-0.553c1.52-0.219,2.902-0.463,4.251-0.715c7.178-1.317,11.949-2.975,14.274-4.893    c1.943-1.601,2.146-3.39,0.772-5.292C473.611,444.113,465.523,440.179,451.948,436.171z"
         id="path21" /></g></g><g
     id="g23" /><g
     id="g25" /><g
     id="g27" /><g
     id="g29" /><g
     id="g31" /><g
     id="g33" /><g
     id="g35" /><g
     id="g37" /><g
     id="g39" /><g
     id="g41" /><g
     id="g43" /><g
     id="g45" /><g
     id="g47" /><g
     id="g49" /><g
     id="g51" /></svg>